<svg id="Layer_1" data-name="Layer 1" xmlns="http://www.w3.org/2000/svg" viewBox="0 0 1920 832"><defs><style>.cls-1{fill:#f05a22;}.cls-2{fill:none;}</style></defs><title>01-kk-logo-main</title><path class="cls-1" d="M292.3,229.43V410.89a6.88,6.88,0,0,1-5.59,6.77c-23.14,4.4-110.26,16.08-110.26-57.5V230.26c0-71.4,115.85-73,115.85-.83"/><path class="cls-1" d="M450.8,354.53V536a6.87,6.87,0,0,1-5.59,6.77C422.07,547.16,335,558.84,335,485.26V355.36c0-71.4,115.85-73,115.85-.83"/><path class="cls-1" d="M609.3,464.34V645.8a6.87,6.87,0,0,1-5.59,6.77c-23.14,4.4-110.25,16.07-110.25-57.5V465.17c0-71.4,115.84-73,115.84-.83"/><path d="M836.06,455.6l69.07,88.66H856.66l-57.77-77.61v77.61H758.2V368.44h40.69v78.11l58-78.11h48.22Z"/><path d="M903.63,483.72c0-36.92,25.62-63.79,67.31-63.79,41.45,0,67.07,26.87,67.07,63.79s-25.62,63.8-67.07,63.8C929.25,547.52,903.63,520.65,903.63,483.72Zm96.2,0c0-18.33-10.8-31.39-28.89-31.39-18.33,0-28.88,13.06-28.88,31.39s10.55,31.4,28.88,31.4C989,515.12,999.83,502.06,999.83,483.72Z"/><path d="M1060.11,423.19h38.43v17.58c7-13.56,20.84-20.84,39.18-20.84,29.39,0,44.21,16.57,44.21,49.48v74.85h-38.68V482c0-20.35-5.78-29.64-21.35-29.64-15.32,0-23.36,10.05-23.36,28.63v63.3h-38.43Z"/><path d="M1287.17,513.61v30.65a150.31,150.31,0,0,1-25.62,2c-18.08,0-43-4-43-44.46V453.59h-19.08v-30.4h19.08V387.28H1257v35.91h27.38v30.4H1257v40.18c0,17.83,7.29,20.6,16.83,20.6A107.15,107.15,0,0,0,1287.17,513.61Z"/><path d="M1427.33,494.27h-89.42c.76,15.83,11.3,24.37,28.38,24.37,11.81,0,19.34-3.27,22.61-10.8h37.68c-3.77,23.86-28.14,39.68-60.29,39.68-41.19,0-66.56-23.36-66.56-63.8,0-39.68,25.87-63.79,65.31-63.79,37.67,0,63.29,23.36,63.29,57.52A131.79,131.79,0,0,1,1427.33,494.27Zm-36.92-23.86c-.26-16.07-9.3-24.61-25.63-24.61-16.57,0-26.62,9.8-26.87,24.61Z"/><path d="M1450.44,423.19h38.43v17.58c7-13.56,20.84-20.84,39.18-20.84,29.38,0,44.2,16.57,44.2,49.48v74.85h-38.67V482c0-20.35-5.78-29.64-21.35-29.64-15.33,0-23.36,10.05-23.36,28.63v63.3h-38.43Z"/><path d="M1677.5,513.61v30.65a150.41,150.41,0,0,1-25.62,2c-18.08,0-43-4-43-44.46V453.59h-19.09v-30.4h19.09V387.28h38.43v35.91h27.38v30.4h-27.38v40.18c0,17.83,7.28,20.6,16.83,20.6A107.27,107.27,0,0,0,1677.5,513.61Z"/><path class="cls-1" d="M1698.1,522.15A24.87,24.87,0,1,1,1723,546.77,24.55,24.55,0,0,1,1698.1,522.15Z"/><rect class="cls-2" width="1920" height="832"/></svg>